<svg width="64" height="64" viewBox="0 0 64 64" fill="none" xmlns="http://www.w3.org/2000/svg">
<rect width="64" height="64" rx="10" fill="#343A40"/>
<path d="M9.70588 46C9.42588 46 9.18788 45.902 8.99188 45.706C8.79588 45.51 8.69788 45.272 8.69788 44.992V17.65C8.69788 17.342 8.78188 17.09 8.94988 16.894C9.14588 16.698 9.39788 16.6 9.70588 16.6H21.8859C25.1619 16.6 27.5979 17.328 29.1939 18.784C30.8179 20.212 31.6299 22.172 31.6299 24.664C31.6299 26.12 31.2659 27.366 30.5379 28.402C29.8379 29.41 29.0119 30.138 28.0599 30.586C29.2359 31.118 30.2159 31.986 30.9999 33.19C31.8119 34.394 32.2179 35.766 32.2179 37.306C32.2179 39.91 31.3359 42.01 29.5719 43.606C27.8359 45.202 25.3859 46 22.2219 46H9.70588ZM21.1299 28.654C22.5859 28.654 23.6919 28.304 24.4479 27.604C25.2039 26.904 25.5819 25.966 25.5819 24.79C25.5819 23.586 25.2039 22.662 24.4479 22.018C23.6919 21.346 22.5859 21.01 21.1299 21.01H14.5359V28.654H21.1299ZM21.5499 41.548C23.0059 41.548 24.1399 41.156 24.9519 40.372C25.7639 39.56 26.1699 38.538 26.1699 37.306C26.1699 36.046 25.7639 35.024 24.9519 34.24C24.1399 33.428 23.0059 33.022 21.5499 33.022H14.5359V41.548H21.5499ZM38.4988 46C38.2188 46 37.9808 45.902 37.7848 45.706C37.5888 45.51 37.4908 45.272 37.4908 44.992V17.608C37.4908 17.3 37.5888 17.062 37.7848 16.894C37.9808 16.698 38.2188 16.6 38.4988 16.6H42.4048C42.7128 16.6 42.9508 16.698 43.1188 16.894C43.3148 17.062 43.4128 17.3 43.4128 17.608V41.002H56.7268C57.0348 41.002 57.2868 41.1 57.4828 41.296C57.6788 41.492 57.7768 41.744 57.7768 42.052V44.992C57.7768 45.3 57.6788 45.552 57.4828 45.748C57.2868 45.916 57.0348 46 56.7268 46H38.4988Z" fill="white"/>
</svg>
