<svg width="16" height="16" viewBox="0 0 16 16" fill="none" xmlns="http://www.w3.org/2000/svg">
<path d="M12.6667 7C12.6667 8.12076 12.3343 9.21635 11.7117 10.1482C11.089 11.0801 10.204 11.8064 9.16854 12.2353C8.13309 12.6642 6.99371 12.7764 5.89449 12.5578C4.79526 12.3391 3.78556 11.7994 2.99306 11.0069C2.20056 10.2144 1.66087 9.20473 1.44222 8.10551C1.22357 7.00628 1.33579 5.8669 1.76468 4.83146C2.19358 3.79601 2.91989 2.911 3.85177 2.28833C4.78365 1.66567 5.87924 1.33333 7 1.33333C8.50289 1.33333 9.94423 1.93035 11.0069 2.99306C12.0696 4.05576 12.6667 5.4971 12.6667 7Z" stroke="#8E8E8E" stroke-width="1.33333" stroke-linecap="round" stroke-linejoin="round"/>
<path d="M11.0073 11.0073L14.6667 14.6667" stroke="#8E8E8E" stroke-width="1.33333" stroke-linecap="round" stroke-linejoin="round"/>
</svg>
